<svg width="44" height="43" viewBox="0 0 44 43" fill="none" xmlns="http://www.w3.org/2000/svg">
<g clip-path="url(#clip0_10_56)">
<path d="M22.4919 0.525497C10.6101 0.525497 0.983887 10.0362 0.983887 21.7578C0.983887 31.1438 7.14595 39.0992 15.686 41.9059C16.7654 42.1062 17.1553 41.4494 17.1553 40.8814C17.1553 40.3771 17.1432 39.0435 17.1351 37.2732C11.1491 38.5525 9.88822 34.4188 9.88822 34.4188C8.90826 31.9718 7.49411 31.3149 7.49411 31.3149C5.54763 30.0025 7.6487 30.0304 7.6487 30.0304C9.80488 30.175 10.9394 32.2133 10.9394 32.2133C12.8577 35.4619 15.9723 34.5223 17.205 33.9756C17.3932 32.6075 17.9537 31.6666 18.564 31.1424C13.7892 30.6103 8.76846 28.7856 8.76846 20.6497C8.76846 18.3261 9.6019 16.4338 10.9798 14.9475C10.7418 14.4154 10.0132 12.2523 11.1693 9.3276C11.1693 9.3276 12.9693 8.76096 17.084 11.5052C18.806 11.0341 20.6342 10.7993 22.461 10.7873C24.2892 10.7993 26.1161 11.0355 27.838 11.5052C31.9286 8.76096 33.7272 9.3276 33.7272 9.3276C34.8819 12.2523 34.1533 14.4141 33.9436 14.9475C35.3081 16.4338 36.1415 18.3274 36.1415 20.6497C36.1415 28.8042 31.114 30.6023 26.3338 31.1212C27.0812 31.7568 27.7816 33.0639 27.7816 35.0478C27.7816 37.8876 27.7547 40.1754 27.7547 40.8668C27.7547 41.4188 28.1311 42.0824 29.2388 41.8687C37.842 39.0913 43.9973 31.1292 43.9973 21.7564C43.9973 10.0349 34.3711 0.52417 22.4893 0.52417L22.4919 0.525497Z" fill="white"/>
</g>
<defs>
<clipPath id="clip0_10_56">
<rect width="43.0161" height="42.4645" fill="white" transform="translate(0.983887)"/>
</clipPath>
</defs>
</svg>
