<svg width="44" height="43" viewBox="0 0 44 43" fill="none" xmlns="http://www.w3.org/2000/svg">
<g clip-path="url(#clip0_10_58)">
<path d="M10.0131 13.6613H1.37749C0.994234 13.6613 0.683685 13.968 0.683685 14.3462V41.7328C0.683685 42.1111 0.994234 42.4177 1.37749 42.4177H10.0131C10.3963 42.4177 10.7069 42.1111 10.7069 41.7328V14.3462C10.7069 13.968 10.3963 13.6613 10.0131 13.6613Z" fill="white"/>
<path d="M5.69839 0.0467224C2.55627 0.0467224 0 2.56747 0 5.66588C0 8.76565 2.55627 11.2874 5.69839 11.2874C8.83801 11.2874 11.3922 8.76551 11.3922 5.66588C11.3923 2.56747 8.83801 0.0467224 5.69839 0.0467224Z" fill="white"/>
<path d="M31.9782 12.9806C28.5098 12.9806 25.9459 14.4525 24.3908 16.1249V14.3462C24.3908 13.968 24.0803 13.6613 23.697 13.6613H15.427C15.0437 13.6613 14.7332 13.968 14.7332 14.3462V41.7328C14.7332 42.1111 15.0437 42.4177 15.427 42.4177H24.0436C24.4269 42.4177 24.7375 42.1111 24.7375 41.7328V28.1828C24.7375 23.6167 25.9938 21.8379 29.2181 21.8379C32.7296 21.8379 33.0086 24.6896 33.0086 28.4177V41.7329C33.0086 42.1113 33.3192 42.4178 33.7024 42.4178H42.3223C42.7056 42.4178 43.0161 42.1113 43.0161 41.7329V26.7109C43.0161 19.9213 41.7047 12.9806 31.9782 12.9806Z" fill="white"/>
</g>
<defs>
<clipPath id="clip0_10_58">
<rect width="43.0161" height="42.4645" fill="white"/>
</clipPath>
</defs>
</svg>
